<!-- sample rectangle -->
<svg xmlns="http://www.w3.org/2000/svg" viewBox="0 0 817.04 360.3">
  <defs>
    <style>.cls-1{fill:#fff;opacity:.1}</style>
  </defs>
  <g id="Layer_2" data-name="Layer 2">
    <g id="Baggrund">
      <path class="cls-1" d="M479.23,0h50.28V191a25.14,25.14,0,0,1-50.28,0ZM670.92,191a25.14,25.14,0,0,0,50.28,0V0H670.92ZM575.08,335.16a25.14,25.14,0,1,0,50.27,0V0H575.08ZM0,46.92a25.14,25.14,0,0,0,50.28,0V0H0Zm766.77,0a25.14,25.14,0,1,0,50.27,0V0H766.77ZM95.85,191a25.14,25.14,0,1,0,50.28,0V0H95.85Zm95.84,144.12a25.14,25.14,0,1,0,50.28,0V0H191.69ZM287.54,191a25.14,25.14,0,1,0,50.28,0V0H287.54ZM383.38,46.92a25.14,25.14,0,0,0,50.28,0V0H383.38Z"></path>
    </g>
  </g>
</svg>